<?xml version="1.0" encoding="UTF-8" standalone="no"?>
<svg
   id="gopher"
   width="283.47931"
   height="281.99951"
   viewBox="0 0 283.47931 281.99951"
   version="1.1"
   xml:space="preserve"
   style="clip-rule:evenodd;fill-rule:evenodd;stroke-linecap:round;stroke-linejoin:round;stroke-miterlimit:1.5"
   sodipodi:docname="raker.svg"
   inkscape:version="1.4.2 (ebf0e940d0, 2025-05-08)"
   inkscape:export-filename="raker.png"
   inkscape:export-xdpi="480.97"
   inkscape:export-ydpi="480.97"
   xmlns:inkscape="http://www.inkscape.org/namespaces/inkscape"
   xmlns:sodipodi="http://sodipodi.sourceforge.net/DTD/sodipodi-0.dtd"
   xmlns="http://www.w3.org/2000/svg"
   xmlns:svg="http://www.w3.org/2000/svg"><sodipodi:namedview
   id="namedview32"
   pagecolor="#ffffff"
   bordercolor="#cccccc"
   borderopacity="0"
   inkscape:showpageshadow="0"
   inkscape:pageopacity="0"
   inkscape:pagecheckerboard="true"
   inkscape:deskcolor="#d1d1d1"
   showgrid="false"
   inkscape:zoom="1.6737618"
   inkscape:cx="126.6608"
   inkscape:cy="168.18403"
   inkscape:window-width="1920"
   inkscape:window-height="1025"
   inkscape:window-x="0"
   inkscape:window-y="0"
   inkscape:window-maximized="1"
   inkscape:current-layer="gopher" /><defs
   id="defs79" />
    
    <g
   transform="matrix(1.09329,0,0,1.09329,32.792672,-11.698203)"
   id="g8">
        <path
   d="m 207.3,44.6 c -6.7,-13.7 -22.9,-1.6 -27,-5.9 -21,-21.6 -46.4,-27 -66.3,-28 H 103 C 83,11.2 57.6,17 36.7,38.7 32.6,43 16.3,30.9 9.7,44.6 2,60.6 25.4,62.2 24.2,69.3 c -2.3,12.8 -0.8,31.8 1,50.5 2.8,31.7 -20.9,107.6 28.4,138.1 9.3,5.8 34.4,9 56.2,9.5 h 0.2 c 21.8,-0.5 43.9,-3.7 53.2,-9.5 49.4,-30.5 25.7,-106.4 28.6,-138.1 1.7,-18.7 3.2,-37.7 1,-50.5 -1.2,-7.1 22.2,-8.8 14.5,-24.7 z"
   style="fill:#8cc5e7;fill-rule:nonzero"
   id="path6" />
    </g>
    <g
   transform="matrix(1.09329,0,0,1.09329,32.792672,-11.698203)"
   id="g12">
        <path
   d="m 143.2,54.3 c -33.4,3.9 -28.9,38.7 -16,50 24,21 49,0 46.2,-21.2 -2.5,-20.4 -19.8,-30 -30.2,-28.8 z"
   style="fill:#e0dedc;fill-rule:nonzero"
   id="path10" />
    </g>
    <g
   transform="matrix(1.09329,0,0,1.09329,32.792672,-11.698203)"
   id="g16">
        <path
   class="eyes"
   d="m 145.5,72.9 c 6.292,0 11.4,5.108 11.4,11.4 0,6.292 -5.108,11.4 -11.4,11.4 -6.292,0 -11.4,-5.108 -11.4,-11.4 0,-6.292 5.108,-11.4 11.4,-11.4 z M 71.356,72.746 c 6.292,0 11.4,5.108 11.4,11.4 0,6.292 -5.108,11.4 -11.4,11.4 -6.292,0 -11.4,-5.108 -11.4,-11.4 0,-6.292 5.108,-11.4 11.4,-11.4 z"
   style="fill:#111212"
   id="path14" />
    </g>
    <g
   transform="matrix(1.09329,0,0,1.09329,32.792672,-11.698203)"
   id="g20">
        <path
   d="m 142.5,75.8 c 1.987,0 3.6,1.613 3.6,3.6 0,1.987 -1.613,3.6 -3.6,3.6 -1.987,0 -3.6,-1.613 -3.6,-3.6 0,-1.987 1.613,-3.6 3.6,-3.6 z M 74.274,75.192 c 1.987,0 3.6,1.613 3.6,3.6 0,1.987 -1.613,3.6 -3.6,3.6 -1.987,0 -3.6,-1.613 -3.6,-3.6 0,-1.987 1.613,-3.6 3.6,-3.6 z"
   style="fill:#ffffff"
   id="path18" />
    </g>
    <g
   transform="matrix(1.09329,0,0,1.09329,32.792672,-11.698203)"
   id="g24">
        <path
   d="m 108.5,107 c -16,2.4 -21.7,7 -20.5,14.2 2,11.8 39.7,10.5 40.9,0.6 1,-8.5 -14.1,-15.7 -20.4,-14.8 z"
   style="fill:#b8937f;fill-rule:nonzero"
   id="path22" />
    </g>
    <g
   transform="matrix(1.09329,0,0,1.09329,32.792672,-11.698203)"
   id="g28">
        <path
   d="m 98.2,111.8 c -2.7,9.8 21.7,8.3 21.1,2 -0.3,-3.7 -3.6,-8.4 -12.3,-8.2 -3.4,0.1 -7.6,1.6 -8.8,6.2 z"
   style="fill-rule:nonzero"
   id="path26" />
    </g>
    <g
   transform="matrix(1.09329,0,0,1.09329,32.792672,-11.698203)"
   id="g32">
        <path
   d="m 99,127.7 c -0.9,0.4 -2.4,10.2 2.2,10.7 3.1,0.3 11.6,1.3 13.6,0 3.9,-2.5 3.5,-8.5 1.3,-10 C 112.4,126 100,127.2 99,127.7 Z M 73.6,54.3 c 33.4,3.9 28.9,38.7 16,50 -24,21 -49,0 -46.2,-21.2 2.6,-20.4 19.9,-30 30.2,-28.8 z"
   style="fill:#e0dedc;fill-rule:nonzero"
   id="path30" />
    </g>
    <g
   transform="matrix(1.09329,0,0,1.09329,32.792672,-11.698203)"
   id="g36">
        <circle
   class="eyes"
   cx="71.400002"
   cy="84.300003"
   r="11.4"
   style="fill:#111212"
   id="circle34" />
    </g>
    <g
   transform="matrix(1.09329,0,0,1.09329,32.792672,-11.698203)"
   id="g40">
        <circle
   cx="74.400002"
   cy="79.400002"
   r="3.5999999"
   style="fill:#ffffff"
   id="circle38" />
    </g>
    <g
   transform="matrix(1.09329,0,0,1.09329,32.792672,-11.698203)"
   id="g44">
        <path
   d="m 193.6,186.7 c 11,0.1 5.6,-23.5 -1.2,-18.8 -3.3,2.3 -3.9,7.6 -3.9,12.1 0,2.5 2,6.6 5.1,6.7 z m -170.3,0 c -11,0.1 -5.6,-23.5 1.2,-18.8 3.3,2.3 3.9,7.6 3.9,12.1 0,2.5 -2,6.6 -5.1,6.7 z m 149.4,72.5 c -6,-8.9 -11.4,-2 -20.1,2.4 -4.1,2.1 6.8,9.6 19,4 3.2,-1.5 3.1,-3.5 1.1,-6.4 z m -128.5,1 c 6,-8.9 11.4,-2 20.1,2.4 4.1,2.1 -6.8,9.6 -19,4 -3.2,-1.5 -3.1,-3.5 -1.1,-6.4 z"
   style="fill:#b8937f;fill-rule:nonzero"
   id="path42" />
    </g>
    <g
   transform="matrix(1.09329,0,0,1.09329,32.792672,-11.698203)"
   id="g48">
        <path
   d="m 188.6,47 c -0.6,2.1 2.1,1.8 3.1,8.3 0.4,2.4 9,-3.5 5.5,-7.8 -2.9,-3.6 -8.1,-2.6 -8.6,-0.5 z M 28.3,47 c 0.6,2.1 -2.1,1.8 -3.1,8.3 -0.4,2.4 -9,-3.5 -5.5,-7.8 2.8,-3.6 8,-2.6 8.6,-0.5 z"
   style="fill:#0083c0;fill-rule:nonzero"
   id="path46" />
    </g>
    
    
    
<g
   transform="matrix(0.5460208,0,0,0.5460208,35.332724,-189.04437)"
   id="g353"><path
     d="m 394.29532,679.53741 c 19.18872,0 34.74381,-15.55582 34.74381,-34.74454 0,-19.18872 -15.55509,-34.74454 -34.74381,-34.74454 -19.18872,0 -34.74381,15.55582 -34.74381,34.74454 0,19.18872 15.55509,34.74454 34.74381,34.74454 z"
     fill="#ffffff"
     clip-path="none"
     mask="none"
     id="path343"
     style="stroke-width:0.729498" /><path
     d="M -25.312935,636.17785 -55.39744,584.06979 c -6.100064,10.56241 -9.312044,22.54441 -9.312044,34.74235 0,12.19794 3.210521,24.17995 9.309856,34.74235 6.099334,10.56241 14.872279,19.33389 25.436142,25.43031 10.563863,6.09642 22.5473294,9.30475 34.7445388,9.3011 L 34.865557,636.17785 v -0.008 c -3.047114,5.28449 -7.432127,9.67315 -12.713694,12.72464 a 34.738703,34.738703 0 0 1 -34.747457,0.005 34.738703,34.738703 0 0 1 -12.717341,-12.72026 z"
     fill="#229342"
     clip-path="none"
     mask="none"
     id="path345"
     style="stroke-width:0.729498" /><path
     d="M 34.863369,636.17566 4.7795938,688.28371 c 12.1972092,0.002 24.1799462,-3.20833 34.7430802,-9.3062 10.563134,-6.09788 19.33462,-14.8701 25.432495,-25.43396 a 69.477406,69.477406 0 0 0 9.304749,-34.74381 c -0.0022,-12.19721 -3.215628,-24.17922 -9.317151,-34.74089 H 4.7744868 l -0.0073,0.005 a 34.738703,34.738703 0 0 1 17.3759172,4.64836 c 5.283755,3.04857 9.670957,7.43359 12.721719,12.71588 a 34.738703,34.738703 0 0 1 -7.3e-4,34.74819 z"
     fill="#fbc116"
     clip-path="none"
     mask="none"
     id="path347"
     style="stroke-width:0.729498" /><path
     d="m 394.29532,672.30663 c 15.19107,0 27.50573,-12.31466 27.50573,-27.50646 0,-15.1918 -12.31466,-27.50573 -27.50573,-27.50573 -15.19107,0 -27.50573,12.31466 -27.50573,27.50573 0,15.19107 12.31466,27.50646 27.50573,27.50646 z"
     fill="#1a73e8"
     clip-path="none"
     mask="none"
     id="path349"
     style="stroke-width:0.729498" /><path
     d="m 394.29532,610.05636 h 60.16828 c -6.09715,-10.56386 -14.8679,-19.33681 -25.43104,-25.43614 a 69.470111,69.470111 0 0 0 -34.74235,-9.3084 c -12.19721,7.3e-4 -24.17922,3.21271 -34.74089,9.3135 a 69.470111,69.470111 0 0 0 -25.42739,25.43906 l 30.08451,52.10806 0.008,0.004 a 34.738703,34.738703 0 0 1 -0.0109,-34.74818 c 3.04857,-5.28303 7.43577,-9.67023 12.71807,-12.71953 5.28229,-3.0493 11.27512,-4.65493 17.37518,-4.65347 z"
     fill="#e33b2e"
     clip-path="none"
     mask="none"
     id="path351"
     style="stroke-width:0.729498" /></g><g
   id="React-Logo-Filled-(1)"
   fill="#087ea4"
   fill-rule="nonzero"
   style="stroke:none;stroke-width:1"
   transform="matrix(0.14247891,0,0,0.14247891,110.73691,166.64557)"><path
     d="m 285.5,201 c -30.09952,0 -54.5,24.40048 -54.5,54.5 0,30.09952 24.40048,54.5 54.5,54.5 30.09952,0 54.5,-24.40048 54.5,-54.5 0,-30.09952 -24.40048,-54.5 -54.5,-54.5"
     id="Path" /><path
     d="m 568.95986,255.99437 c 0,-42.78671 -39.62206,-80.31293 -102.70824,-105.00916 0.84303,-5.56167 1.60576,-11.0631 2.1477,-16.46415 C 474.62163,73.041515 459.80852,28.66862 426.70986,9.5541429 389.67708,-11.829175 337.36955,3.691299 284.47993,46.016213 231.59031,3.691299 179.28277,-11.829175 142.25,9.5541429 109.15133,28.66862 94.338225,73.041515 100.56053,134.52106 c 0.54195,5.40105 1.28461,10.92256 2.1477,16.50431 -5.258851,2.00782 -10.417345,4.13612 -15.37512,6.3648 C 31.011182,182.70882 0,217.76541 0,255.99437 c 0,42.78671 39.622054,80.31293 102.70823,105.00916 -0.86309,5.56167 -1.60575,11.0631 -2.1477,16.46415 -6.222305,61.47955 8.5908,105.85244 41.68947,124.96692 11.37968,6.45298 24.27439,9.75217 37.35392,9.55724 31.35241,0 67.96367,-16.50431 104.87601,-46.01931 36.89227,29.515 73.5236,46.01931 104.91615,46.01931 13.07918,0.19202 25.97314,-3.10698 37.35392,-9.55724 33.09867,-19.11448 47.91177,-63.48737 41.68947,-124.96692 -0.54195,-5.40105 -1.30468,-10.90248 -2.1477,-16.46415 C 529.37795,336.34746 569,298.76101 569,255.99437 M 389.15521,27.102518 c 8.40994,-0.202912 16.72263,1.834332 24.08636,5.903001 22.9824,13.271711 33.29938,49.271982 28.28139,98.764821 -0.34122,3.37315 -0.74266,6.78645 -1.22438,10.21982 -26.23166,-7.90212 -53.09281,-13.53801 -80.28786,-16.84563 -16.4857,-21.92047 -34.8182,-42.388083 -54.79645,-61.178377 31.37247,-24.254505 60.81804,-36.863635 83.92087,-36.863635 M 378.3565,310.2056 c -10.15159,17.62513 -21.20587,34.71436 -33.11874,51.19949 -20.19271,2.07491 -40.47894,3.10696 -60.7779,3.09221 -20.29227,0.0141 -40.57179,-1.01799 -60.75784,-3.09221 -11.88111,-16.48571 -22.90195,-33.57503 -33.01837,-51.19949 -10.15106,-17.57632 -19.37668,-35.67141 -27.6391,-54.21123 8.26242,-18.53982 17.48804,-36.63492 27.6391,-54.21123 10.10047,-17.55377 21.08735,-34.58205 32.91801,-51.01879 20.22298,-2.12626 40.5439,-3.18518 60.87827,-3.17247 20.29222,-0.0122 40.57163,1.01989 60.75783,3.09216 11.87129,16.46203 22.89833,33.51707 33.03845,51.0991 10.14321,17.58058 19.36862,35.67526 27.63909,54.21123 -8.27047,18.53597 -17.49588,36.63065 -27.63909,54.21123 m 41.4486,-20.07823 c 6.37035,17.37617 11.60018,35.14971 15.65613,53.20731 -17.60131,5.48896 -35.54415,9.81509 -53.71257,12.95046 6.90476,-10.41391 13.59541,-21.24946 20.07196,-32.50666 6.40296,-11.12334 12.40448,-22.34707 18.06477,-33.5708 m -173.44183,100.1703 c 12.48476,0.76297 25.23046,1.20469 38.13673,1.20469 12.90627,0 25.73226,-0.44172 38.23709,-1.20469 -11.85645,14.20544 -24.62943,27.61958 -38.23709,40.15647 -13.57836,-12.5349 -26.31808,-25.94933 -38.13673,-40.15647 z m -59.05171,-34.13299 c -18.17427,-3.12134 -36.12383,-7.43407 -53.73265,-12.91031 4.03964,-18.02903 9.24931,-35.77562 15.59592,-53.127 5.58,11.22373 11.56145,22.44746 18.06476,33.5708 6.50332,11.12334 13.22743,22.08606 20.07197,32.50666 M 149.17483,221.76098 c -6.32388,-17.28704 -11.52004,-34.96624 -15.55577,-52.92622 17.56512,-5.48238 35.46659,-9.82166 53.59214,-12.99061 -6.86462,10.38044 -13.58872,21.14237 -20.07197,32.36611 -6.48324,11.22373 -12.40447,22.30691 -18.06476,33.55072 m 173.54219,-100.1703 c -12.48476,-0.76297 -25.23046,-1.20469 -38.23709,-1.20469 -12.89958,0 -25.61183,0.40156 -38.13673,1.20469 11.81865,-14.20714 24.55837,-27.621566 38.13673,-40.156464 13.61284,12.531612 26.38616,25.946104 38.23709,40.156464 z m 79.08353,66.61958 c -6.50332,-11.27058 -13.22742,-22.11283 -20.17232,-32.52674 18.21635,3.13553 36.20635,7.46843 53.85307,12.97054 -4.04898,18.02661 -9.25847,35.7726 -15.59591,53.127 -5.58001,-11.22373 -11.58152,-22.44746 -18.06477,-33.55073 M 127.51718,131.79042 c -5.07821,-49.472762 5.299,-85.493111 28.26132,-98.764823 7.3662,-4.06235 15.67715,-6.099169 24.08636,-5.903001 23.10283,0 52.5484,12.60913 83.92087,36.863636 -19.9916,18.803641 -38.33743,39.284578 -54.8366,61.218528 -27.18744,3.32327 -54.04558,8.93837 -80.28785,16.7854 -0.46165,-3.43337 -0.88316,-6.82659 -1.20432,-10.19974 m -29.003983,50.31605 c 3.091083,-1.33855 6.242383,-2.67709 9.453893,-4.01564 6.31366,26.64484 14.87492,52.70607 25.59175,77.90354 -10.73709,25.24695 -19.30532,51.36269 -25.61182,78.06417 -51.143361,-20.98175 -80.78965,-50.05503 -80.78965,-78.06417 0,-26.54342 26.093551,-53.46833 71.355827,-73.8879 z M 155.7785,478.96314 c -22.96232,-13.27171 -33.33953,-49.29206 -28.26132,-98.76482 0.32115,-3.37315 0.74266,-6.76637 1.20432,-10.21982 26.23219,7.90002 53.09315,13.53586 80.28785,16.84563 16.49094,21.92859 34.82297,42.4091 54.79646,61.21853 -43.73681,33.79167 -83.70009,44.93509 -107.96709,30.92048 m 285.66417,-98.76482 c 5.01799,49.49284 -5.299,85.49311 -28.28139,98.76482 -24.24693,14.05477 -64.23028,2.87119 -107.94702,-30.92048 19.96688,-18.80992 38.2922,-39.29045 54.77639,-61.21853 27.19505,-3.30762 54.0562,-8.94351 80.28785,-16.84563 0.48173,3.45345 0.88316,6.84667 1.22439,10.21982 m 19.63038,-46.17994 c -6.32432,-26.68586 -14.899,-52.78733 -25.6319,-78.02401 10.72821,-25.25029 19.29619,-51.36527 25.61183,-78.06417 51.043,20.98175 80.76957,50.05504 80.76957,78.06417 0,28.00914 -29.64629,57.08242 -80.78965,78.06417"
     id="Shape" /></g></svg>
