<?xml version="1.0" encoding="UTF-8" standalone="no"?>
<svg
   id="gopher"
   width="283.47931"
   height="281.99951"
   viewBox="0 0 283.47931 281.99951"
   version="1.1"
   xml:space="preserve"
   style="clip-rule:evenodd;fill-rule:evenodd;stroke-linecap:round;stroke-linejoin:round;stroke-miterlimit:1.5"
   sodipodi:docname="raker.svg"
   inkscape:version="1.2.2 (b0a8486541, 2022-12-01)"
   inkscape:export-filename="raker.png"
   inkscape:export-xdpi="480.97"
   inkscape:export-ydpi="480.97"
   xmlns:inkscape="http://www.inkscape.org/namespaces/inkscape"
   xmlns:sodipodi="http://sodipodi.sourceforge.net/DTD/sodipodi-0.dtd"
   xmlns="http://www.w3.org/2000/svg"
   xmlns:svg="http://www.w3.org/2000/svg"><sodipodi:namedview
   id="namedview32"
   pagecolor="#ffffff"
   bordercolor="#cccccc"
   borderopacity="0"
   inkscape:showpageshadow="0"
   inkscape:pageopacity="0"
   inkscape:pagecheckerboard="true"
   inkscape:deskcolor="#d1d1d1"
   showgrid="false"
   inkscape:zoom="0.83688088"
   inkscape:cx="142.19467"
   inkscape:cy="141.59721"
   inkscape:window-width="1884"
   inkscape:window-height="1027"
   inkscape:window-x="36"
   inkscape:window-y="24"
   inkscape:window-maximized="1"
   inkscape:current-layer="gopher" /><defs
   id="defs79" />
    
    <g
   transform="matrix(1.09329,0,0,1.09329,32.792672,-11.698203)"
   id="g8">
        <path
   d="m 207.3,44.6 c -6.7,-13.7 -22.9,-1.6 -27,-5.9 -21,-21.6 -46.4,-27 -66.3,-28 H 103 C 83,11.2 57.6,17 36.7,38.7 32.6,43 16.3,30.9 9.7,44.6 2,60.6 25.4,62.2 24.2,69.3 c -2.3,12.8 -0.8,31.8 1,50.5 2.8,31.7 -20.9,107.6 28.4,138.1 9.3,5.8 34.4,9 56.2,9.5 h 0.2 c 21.8,-0.5 43.9,-3.7 53.2,-9.5 49.4,-30.5 25.7,-106.4 28.6,-138.1 1.7,-18.7 3.2,-37.7 1,-50.5 -1.2,-7.1 22.2,-8.8 14.5,-24.7 z"
   style="fill:#8cc5e7;fill-rule:nonzero"
   id="path6" />
    </g>
    <g
   transform="matrix(1.09329,0,0,1.09329,32.792672,-11.698203)"
   id="g12">
        <path
   d="m 143.2,54.3 c -33.4,3.9 -28.9,38.7 -16,50 24,21 49,0 46.2,-21.2 -2.5,-20.4 -19.8,-30 -30.2,-28.8 z"
   style="fill:#e0dedc;fill-rule:nonzero"
   id="path10" />
    </g>
    <g
   transform="matrix(1.09329,0,0,1.09329,32.792672,-11.698203)"
   id="g16">
        <path
   class="eyes"
   d="m 145.5,72.9 c 6.292,0 11.4,5.108 11.4,11.4 0,6.292 -5.108,11.4 -11.4,11.4 -6.292,0 -11.4,-5.108 -11.4,-11.4 0,-6.292 5.108,-11.4 11.4,-11.4 z M 71.356,72.746 c 6.292,0 11.4,5.108 11.4,11.4 0,6.292 -5.108,11.4 -11.4,11.4 -6.292,0 -11.4,-5.108 -11.4,-11.4 0,-6.292 5.108,-11.4 11.4,-11.4 z"
   style="fill:#111212"
   id="path14" />
    </g>
    <g
   transform="matrix(1.09329,0,0,1.09329,32.792672,-11.698203)"
   id="g20">
        <path
   d="m 142.5,75.8 c 1.987,0 3.6,1.613 3.6,3.6 0,1.987 -1.613,3.6 -3.6,3.6 -1.987,0 -3.6,-1.613 -3.6,-3.6 0,-1.987 1.613,-3.6 3.6,-3.6 z M 74.274,75.192 c 1.987,0 3.6,1.613 3.6,3.6 0,1.987 -1.613,3.6 -3.6,3.6 -1.987,0 -3.6,-1.613 -3.6,-3.6 0,-1.987 1.613,-3.6 3.6,-3.6 z"
   style="fill:#ffffff"
   id="path18" />
    </g>
    <g
   transform="matrix(1.09329,0,0,1.09329,32.792672,-11.698203)"
   id="g24">
        <path
   d="m 108.5,107 c -16,2.4 -21.7,7 -20.5,14.2 2,11.8 39.7,10.5 40.9,0.6 1,-8.5 -14.1,-15.7 -20.4,-14.8 z"
   style="fill:#b8937f;fill-rule:nonzero"
   id="path22" />
    </g>
    <g
   transform="matrix(1.09329,0,0,1.09329,32.792672,-11.698203)"
   id="g28">
        <path
   d="m 98.2,111.8 c -2.7,9.8 21.7,8.3 21.1,2 -0.3,-3.7 -3.6,-8.4 -12.3,-8.2 -3.4,0.1 -7.6,1.6 -8.8,6.2 z"
   style="fill-rule:nonzero"
   id="path26" />
    </g>
    <g
   transform="matrix(1.09329,0,0,1.09329,32.792672,-11.698203)"
   id="g32">
        <path
   d="m 99,127.7 c -0.9,0.4 -2.4,10.2 2.2,10.7 3.1,0.3 11.6,1.3 13.6,0 3.9,-2.5 3.5,-8.5 1.3,-10 C 112.4,126 100,127.2 99,127.7 Z M 73.6,54.3 c 33.4,3.9 28.9,38.7 16,50 -24,21 -49,0 -46.2,-21.2 2.6,-20.4 19.9,-30 30.2,-28.8 z"
   style="fill:#e0dedc;fill-rule:nonzero"
   id="path30" />
    </g>
    <g
   transform="matrix(1.09329,0,0,1.09329,32.792672,-11.698203)"
   id="g36">
        <circle
   class="eyes"
   cx="71.400002"
   cy="84.300003"
   r="11.4"
   style="fill:#111212"
   id="circle34" />
    </g>
    <g
   transform="matrix(1.09329,0,0,1.09329,32.792672,-11.698203)"
   id="g40">
        <circle
   cx="74.400002"
   cy="79.400002"
   r="3.5999999"
   style="fill:#ffffff"
   id="circle38" />
    </g>
    <g
   transform="matrix(1.09329,0,0,1.09329,32.792672,-11.698203)"
   id="g44">
        <path
   d="m 193.6,186.7 c 11,0.1 5.6,-23.5 -1.2,-18.8 -3.3,2.3 -3.9,7.6 -3.9,12.1 0,2.5 2,6.6 5.1,6.7 z m -170.3,0 c -11,0.1 -5.6,-23.5 1.2,-18.8 3.3,2.3 3.9,7.6 3.9,12.1 0,2.5 -2,6.6 -5.1,6.7 z m 149.4,72.5 c -6,-8.9 -11.4,-2 -20.1,2.4 -4.1,2.1 6.8,9.6 19,4 3.2,-1.5 3.1,-3.5 1.1,-6.4 z m -128.5,1 c 6,-8.9 11.4,-2 20.1,2.4 4.1,2.1 -6.8,9.6 -19,4 -3.2,-1.5 -3.1,-3.5 -1.1,-6.4 z"
   style="fill:#b8937f;fill-rule:nonzero"
   id="path42" />
    </g>
    <g
   transform="matrix(1.09329,0,0,1.09329,32.792672,-11.698203)"
   id="g48">
        <path
   d="m 188.6,47 c -0.6,2.1 2.1,1.8 3.1,8.3 0.4,2.4 9,-3.5 5.5,-7.8 -2.9,-3.6 -8.1,-2.6 -8.6,-0.5 z M 28.3,47 c 0.6,2.1 -2.1,1.8 -3.1,8.3 -0.4,2.4 -9,-3.5 -5.5,-7.8 2.8,-3.6 8,-2.6 8.6,-0.5 z"
   style="fill:#0083c0;fill-rule:nonzero"
   id="path46" />
    </g>
    
    
    
<g
   transform="matrix(0.5460208,0,0,0.5460208,35.332724,-189.04437)"
   id="g353"><path
     d="m 394.29532,679.53741 c 19.18872,0 34.74381,-15.55582 34.74381,-34.74454 0,-19.18872 -15.55509,-34.74454 -34.74381,-34.74454 -19.18872,0 -34.74381,15.55582 -34.74381,34.74454 0,19.18872 15.55509,34.74454 34.74381,34.74454 z"
     fill="#ffffff"
     clip-path="none"
     mask="none"
     id="path343"
     style="stroke-width:0.729498" /><path
     d="M -25.312935,636.17785 -55.39744,584.06979 c -6.100064,10.56241 -9.312044,22.54441 -9.312044,34.74235 0,12.19794 3.210521,24.17995 9.309856,34.74235 6.099334,10.56241 14.872279,19.33389 25.436142,25.43031 10.563863,6.09642 22.5473294,9.30475 34.7445388,9.3011 L 34.865557,636.17785 v -0.008 c -3.047114,5.28449 -7.432127,9.67315 -12.713694,12.72464 a 34.738703,34.738703 0 0 1 -34.747457,0.005 34.738703,34.738703 0 0 1 -12.717341,-12.72026 z"
     fill="#229342"
     clip-path="none"
     mask="none"
     id="path345"
     style="stroke-width:0.729498" /><path
     d="M 34.863369,636.17566 4.7795938,688.28371 c 12.1972092,0.002 24.1799462,-3.20833 34.7430802,-9.3062 10.563134,-6.09788 19.33462,-14.8701 25.432495,-25.43396 a 69.477406,69.477406 0 0 0 9.304749,-34.74381 c -0.0022,-12.19721 -3.215628,-24.17922 -9.317151,-34.74089 H 4.7744868 l -0.0073,0.005 a 34.738703,34.738703 0 0 1 17.3759172,4.64836 c 5.283755,3.04857 9.670957,7.43359 12.721719,12.71588 a 34.738703,34.738703 0 0 1 -7.3e-4,34.74819 z"
     fill="#fbc116"
     clip-path="none"
     mask="none"
     id="path347"
     style="stroke-width:0.729498" /><path
     d="m 394.29532,672.30663 c 15.19107,0 27.50573,-12.31466 27.50573,-27.50646 0,-15.1918 -12.31466,-27.50573 -27.50573,-27.50573 -15.19107,0 -27.50573,12.31466 -27.50573,27.50573 0,15.19107 12.31466,27.50646 27.50573,27.50646 z"
     fill="#1a73e8"
     clip-path="none"
     mask="none"
     id="path349"
     style="stroke-width:0.729498" /><path
     d="m 394.29532,610.05636 h 60.16828 c -6.09715,-10.56386 -14.8679,-19.33681 -25.43104,-25.43614 a 69.470111,69.470111 0 0 0 -34.74235,-9.3084 c -12.19721,7.3e-4 -24.17922,3.21271 -34.74089,9.3135 a 69.470111,69.470111 0 0 0 -25.42739,25.43906 l 30.08451,52.10806 0.008,0.004 a 34.738703,34.738703 0 0 1 -0.0109,-34.74818 c 3.04857,-5.28303 7.43577,-9.67023 12.71807,-12.71953 5.28229,-3.0493 11.27512,-4.65493 17.37518,-4.65347 z"
     fill="#e33b2e"
     clip-path="none"
     mask="none"
     id="path351"
     style="stroke-width:0.729498" /></g></svg>
